# File created by Blade
# Date/Time:  Tue Jan 27 18:12:51 2015
#---------------------------------------------------------
:version 1.10
:name HOM
:units
  mass 1.0
  length 1.000000
  angle deg
:documentation
     Acclaim Skeleton File
:root
   axis xyz
   order TX TY TZ RX RY RZ
   position 0.000000 0.000000 0.000000
   orientation 0 0 0
:bonedata
   begin
      id 1
      name Spine_dum
      direction 0.000000 1.000000 0.000000
      length 5.195262
      axis 0.0 0.0 0.0 xyz
   end
   begin
      id 2
      name LeftUpLeg_dum
      direction 1.000000 0.000000 0.000000
      length 3.351363
      axis 0.0 0.0 0.0 xyz
   end
   begin
      id 3
      name RightUpLeg_dum
      direction -1.000000 0.000000 0.000000
      length 3.351363
      axis 0.0 0.0 0.0 xyz
   end
   begin
      id 4
      name Spine
      direction 0.000000 1.000000 0.000000
      length 0.000000
      axis 0.0 0.0 0.0 xyz
      dof rx ry rz
   end
   begin
      id 5
      name Spine_dum1
      direction 0.000000 1.000000 0.000000
      length 15.653875
      axis 0.0 0.0 0.0 xyz
   end
   begin
      id 6
      name Spine_dum2
      direction 0.000000 1.000000 0.000000
      length 10.329768
      axis 0.0 0.0 0.0 xyz
   end
   begin
      id 7
      name Spine_dum3
      direction 0.000000 1.000000 0.000000
      length 10.329768
      axis 0.0 0.0 0.0 xyz
   end
   begin
      id 8
      name Head
      direction 0.000000 1.000000 0.000000
      length 4.527550
      axis 0.0 0.0 0.0 xyz
      dof rx ry rz
   end
   begin
      id 9
      name LeftShoulder
      direction 1.000000 0.000000 0.000000
      length 6.996006
      axis 0.0 0.0 -90.0 xyz
      dof rx ry rz
   end
   begin
      id 10
      name LeftArm
      direction 1.000000 0.000000 0.000000
      length 10.209302
      axis 0.0 0.0 -90.0 xyz
      dof rx ry rz
   end
   begin
      id 11
      name LeftForeArm
      direction 1.000000 0.000000 0.000000
      length 8.563163
      axis 0.0 0.0 -90.0 xyz
      dof ry rz rx
   end
   begin
      id 12
      name LeftHand
      direction 0.000000 0.000000 0.000000
      length 0.000000
      axis 0.0 0.0 -90.0 xyz
      dof rx ry rz
   end
   begin
      id 13
      name LeftHand_dum1
      direction 0.000000 0.000000 0.000000
      length 0.000000
      axis 0.0 0.0 -90.0 xyz
   end
   begin
      id 14
      name LeftHand_dum2
      direction 1.000000 0.000000 0.000000
      length 3.937000
      axis 0.0 0.0 -90.0 xyz
   end
   begin
      id 15
      name LeftHandThumb1
      direction 0.000000 0.000000 1.000000
      length 3.937000
      axis 0.0 0.0 -90.0 xyz
      dof rx rz ry
   end
   begin
      id 16
      name RightShoulder
      direction -1.000000 0.000000 0.000000
      length 6.996006
      axis 0.0 0.0 90.0 xyz
      dof rx ry rz
   end
   begin
      id 17
      name RightArm
      direction -1.000000 0.000000 0.000000
      length 10.209302
      axis 0.0 0.0 90.0 xyz
      dof rx ry rz
   end
   begin
      id 18
      name RightForeArm
      direction -1.000000 0.000000 0.000000
      length 8.563163
      axis 0.0 0.0 90.0 xyz
      dof ry rz rx
   end
   begin
      id 19
      name RightHand
      direction 0.000000 0.000000 0.000000
      length 0.000000
      axis 0.0 0.0 90.0 xyz
      dof rx ry rz
   end
   begin
      id 20
      name RightHand_dum1
      direction 0.000000 0.000000 0.000000
      length 0.000000
      axis 0.0 0.0 90.0 xyz
   end
   begin
      id 21
      name RightHand_dum2
      direction -1.000000 0.000000 0.000000
      length 3.937000
      axis 0.0 0.0 90.0 xyz
   end
   begin
      id 22
      name RightHandThumb1
      direction 0.000000 0.000000 1.000000
      length 3.937000
      axis 0.0 0.0 90.0 xyz
      dof rx rz ry
   end
   begin
      id 23
      name LeftUpLeg
      direction 0.000000 -1.000000 0.000000
      length 16.346831
      axis 0.0 0.0 0.0 xyz
      dof rx ry rz
   end
   begin
      id 24
      name LeftLeg
      direction 0.000000 -1.000000 0.000000
      length 13.959795
      axis 0.0 0.0 0.0 xyz
      dof rx ry rz
   end
   begin
      id 25
      name LeftFoot
      direction 0.000000 -0.258819 0.965926
      length 5.165550
      axis 15.0 0.0 0.0 xyz
      dof rx ry rz
   end
   begin
      id 26
      name LeftToeBase
      direction 0.000000 0.000000 1.000000
      length 2.952750
      axis 0.0 0.0 0.0 xyz
      dof rx ry rz
   end
   begin
      id 27
      name RightUpLeg
      direction 0.000000 -1.000000 0.000000
      length 16.346831
      axis 0.0 0.0 0.0 xyz
      dof rx ry rz
   end
   begin
      id 28
      name RightLeg
      direction 0.000000 -1.000000 0.000000
      length 13.959795
      axis 0.0 0.0 0.0 xyz
      dof rx ry rz
   end
   begin
      id 29
      name RightFoot
      direction 0.000000 -0.258819 0.965926
      length 5.165550
      axis 15.0 0.0 0.0 xyz
      dof rx ry rz
   end
   begin
      id 30
      name RightToeBase
      direction 0.000000 0.000000 1.000000
      length 2.952750
      axis 0.0 0.0 0.0 xyz
      dof rx ry rz
   end
:hierarchy
   begin
      root Spine_dum LeftUpLeg_dum RightUpLeg_dum
      Spine_dum Spine
      LeftUpLeg_dum LeftUpLeg
      RightUpLeg_dum RightUpLeg
      Spine Spine_dum1 Spine_dum2 Spine_dum3
      Spine_dum1 Head
      Spine_dum2 LeftShoulder
      Spine_dum3 RightShoulder
      LeftShoulder LeftArm
      LeftArm LeftForeArm
      LeftForeArm LeftHand
      LeftHand LeftHand_dum1 LeftHand_dum2
      LeftHand_dum1 LeftHandThumb1
      RightShoulder RightArm
      RightArm RightForeArm
      RightForeArm RightHand
      RightHand RightHand_dum1 RightHand_dum2
      RightHand_dum1 RightHandThumb1
      LeftUpLeg LeftLeg
      LeftLeg LeftFoot
      LeftFoot LeftToeBase
      RightUpLeg RightLeg
      RightLeg RightFoot
      RightFoot RightToeBase
   end

# File created by Blade
# Date/Time:  Tue Jan 27 18:12:42 2015
# Frame Rate: 120.000 fps
#------------------------------------------------------
:FULLY-SPECIFIED
:DEGREES
1315
root -1.423711 31.823380 -6.847643 5.383452 11.464970 3.893255
Spine -7.623631 -0.331991 -3.376477
Head 9.749580 -19.701078 -0.231887
LeftShoulder -11.056715 17.003093 4.239992
LeftArm 26.562042 41.342492 -67.025310
LeftForeArm -1.108910 -0.000000 14.592992
LeftHand -10.594206 -0.000000 -6.304469
LeftHandThumb1 -26.253704 0.000000 33.147579
RightShoulder 5.983543 18.945528 -14.319852
RightArm 17.585990 12.585171 88.979358
RightForeArm 27.231124 -0.000000 30.792413
RightHand -17.228346 -0.000000 0.470068
RightHandThumb1 -24.326973 -0.000000 -32.862282
LeftUpLeg -2.105283 -3.801990 -1.309822
LeftLeg 1.438053 -0.000000 -0.000000
LeftFoot -16.866912 15.436309 -24.231523
LeftToeBase 8.615387 -0.000000 -0.000000
RightUpLeg 2.225499 -7.150529 -4.053636
RightLeg -3.625475 -0.000000 0.000000
RightFoot -15.790608 -15.248788 9.864549
RightToeBase 5.223626 -0.000000 -0.000000
1316
root -1.423203 31.823534 -6.852924 5.392366 11.447119 3.884751
Spine -7.589095 -0.332789 -3.345901
Head 9.667848 -19.711173 -0.208246
LeftShoulder -11.084998 16.989397 4.235633
LeftArm 26.610514 41.366669 -66.972439
LeftForeArm -1.088979 -0.000000 14.605620
LeftHand -10.563396 -0.000000 -6.212493
LeftHandThumb1 -26.253704 0.000000 33.147579
RightShoulder 6.002304 19.090295 -14.308958
RightArm 17.579921 13.402317 89.127062
RightForeArm 27.445078 -0.000000 33.040969
RightHand -17.162279 -0.000000 0.400317
RightHandThumb1 -24.326973 -0.000000 -32.862282
LeftUpLeg -2.130220 -3.784340 -1.303522
LeftLeg 1.459473 -0.000000 -0.000000
LeftFoot -16.871441 15.417127 -24.229742
LeftToeBase 8.600994 -0.000000 -0.000000
RightUpLeg 2.203954 -7.130952 -4.047737
RightLeg -3.631361 -0.000000 0.000000
RightFoot -15.772958 -15.247765 9.871987
RightToeBase 5.251028 -0.000000 -0.000000
1317
root -1.421487 31.823883 -6.856746 5.401094 11.442616 3.885983
Spine -7.552896 -0.334625 -3.328576
Head 9.571187 -19.757439 -0.175308
LeftShoulder -11.113767 16.963342 4.236318
LeftArm 26.661786 41.431077 -66.911258
LeftForeArm -1.104718 -0.000000 14.615355
LeftHand -10.571435 -0.000000 -6.191899
LeftHandThumb1 -26.253704 0.000000 33.147579
RightShoulder 6.020778 19.198225 -14.291566
RightArm 17.559127 14.128817 89.215521
RightForeArm 27.710130 -0.000000 35.428781
RightHand -17.152797 -0.000000 0.489203
RightHandThumb1 -24.326973 -0.000000 -32.862282
LeftUpLeg -2.142549 -3.778391 -1.308812
LeftLeg 1.453804 -0.000000 -0.000000
LeftFoot -16.870194 15.416046 -24.246296
LeftToeBase 8.648695 -0.000000 -0.000000
RightUpLeg 2.185972 -7.140828 -4.051577
RightLeg -3.625570 -0.000000 0.000000
RightFoot -15.766155 -15.236141 9.861168
RightToeBase 5.210805 -0.000000 -0.000000
1318
root -1.420179 31.823890 -6.860127 5.409970 11.432963 3.888452
Spine -7.510458 -0.328235 -3.312301
Head 9.443571 -19.802896 -0.129583
LeftShoulder -11.155729 16.938055 4.227551
LeftArm 26.715547 41.484930 -66.843999
LeftForeArm -1.142228 -0.000000 14.645769
LeftHand -10.578543 -0.000000 -6.190564
LeftHandThumb1 -26.253704 0.000000 33.147579
RightShoulder 6.027585 19.299296 -14.280624
RightArm 17.546797 14.744437 89.275182
RightForeArm 27.977807 -0.000000 37.891729
RightHand -17.010572 -0.000000 0.256103
RightHandThumb1 -24.326973 -0.000000 -32.862282
LeftUpLeg -2.151622 -3.795644 -1.316214
LeftLeg 1.440363 -0.000000 -0.000000
LeftFoot -16.860757 15.472106 -24.200809
LeftToeBase 8.632090 -0.000000 -0.000000
RightUpLeg 2.165596 -7.138851 -4.058234
RightLeg -3.617526 -0.000000 0.000000
RightFoot -15.770814 -15.214081 9.881943
RightToeBase 5.220164 -0.000000 -0.000000
1319
root -1.419585 31.824147 -6.863584 5.423032 11.441771 3.883707
Spine -7.476558 -0.326993 -3.289680
Head 9.323467 -19.850899 -0.078498
LeftShoulder -11.178482 16.908700 4.226701
LeftArm 26.747491 41.528333 -66.801214
LeftForeArm -1.166024 -0.000000 14.682948
LeftHand -10.591992 -0.000000 -6.201290
LeftHandThumb1 -26.253704 0.000000 33.147579
RightShoulder 6.019963 19.399571 -14.283564
RightArm 17.544995 15.436919 89.401826
RightForeArm 28.108473 -0.000000 40.420259
RightHand -16.945082 0.000000 0.271560
RightHandThumb1 -24.326973 -0.000000 -32.862282
LeftUpLeg -2.172918 -3.787318 -1.312001
LeftLeg 1.439775 -0.000000 -0.000000
LeftFoot -16.862679 15.446735 -24.239324
LeftToeBase 8.632304 -0.000000 -0.000000
RightUpLeg 2.139164 -7.153019 -4.053863
RightLeg -3.600032 -0.000000 0.000000
RightFoot -15.774664 -15.205386 9.876233
RightToeBase 5.253021 -0.000000 -0.000000
1320
root -1.416237 31.824227 -6.863047 5.385235 11.494781 3.879331
Spine -7.378566 -0.357395 -3.250876
Head 9.166886 -19.890208 -0.029453
LeftShoulder -11.190354 16.815527 4.212266
LeftArm 26.660048 41.538617 -66.841822
LeftForeArm -1.138750 -0.000000 14.762732
LeftHand -10.619040 -0.000000 -6.177205
LeftHandThumb1 -26.253704 0.000000 33.147579
RightShoulder 5.975958 19.493700 -14.325595
RightArm 17.591015 16.060463 89.549846
RightForeArm 28.210710 -0.000000 42.961669
RightHand -16.880046 -0.000000 0.222617
RightHandThumb1 -24.326973 -0.000000 -32.862282
LeftUpLeg -2.138606 -3.825166 -1.311721
LeftLeg 1.445775 -0.000000 -0.000000
LeftFoot -16.854889 15.449746 -24.177352
LeftToeBase 8.630367 -0.000000 -0.000000
RightUpLeg 2.195397 -7.214428 -4.058300
RightLeg -3.616186 -0.000000 0.000000
RightFoot -15.756274 -15.184851 9.868403
RightToeBase 5.262393 -0.000000 -0.000000
1321
root -1.417622 31.824214 -6.867691 5.408575 11.500218 3.876362
Spine -7.342773 -0.330200 -3.250855
Head 9.003080 -19.950385 0.084419
LeftShoulder -11.230250 16.844547 4.212028
LeftArm 26.795874 41.551791 -66.743573
LeftForeArm -1.168724 0.000000 14.808820
LeftHand -10.622863 -0.000000 -6.200001
LeftHandThumb1 -26.253704 0.000000 33.147579
RightShoulder 5.938306 19.586799 -14.324170
RightArm 17.623040 16.584366 89.596036
RightForeArm 28.342358 -0.000000 45.558840
RightHand -16.840506 -0.000000 0.061667
RightHandThumb1 -24.326973 -0.000000 -32.862282
LeftUpLeg -2.174394 -3.822262 -1.304129
LeftLeg 1.451123 -0.000000 -0.000000
LeftFoot -16.843026 15.430484 -24.187298
LeftToeBase 8.610917 -0.000000 -0.000000
RightUpLeg 2.156627 -7.187584 -4.050437
RightLeg -3.598606 -0.000000 0.000000
RightFoot -15.768733 -15.218711 9.885904
RightToeBase 5.247283 -0.000000 -0.000000
1322
root -1.417193 31.824263 -6.870522 5.425539 11.525469 3.882380
Spine -7.300561 -0.339557 -3.246836
Head 8.833245 -19.958989 0.205595
LeftShoulder -11.270245 16.818617 4.205151
LeftArm 26.814724 41.555970 -66.724870
LeftForeArm -1.132087 -0.000000 14.874810
LeftHand -10.628864 -0.000000 -6.200937
LeftHandThumb1 -26.253704 0.000000 33.147579
RightShoulder 5.897963 19.671419 -14.358102
RightArm 17.688252 17.136491 89.727969
RightForeArm 28.227660 0.000000 48.183719
RightHand -16.816723 -0.000000 -0.065096
RightHandThumb1 -24.326973 -0.000000 -32.862282
LeftUpLeg -2.197681 -3.840018 -1.308085
LeftLeg 1.451282 -0.000000 -0.000000
LeftFoot -16.836907 15.418584 -24.215453
LeftToeBase 8.628879 -0.000000 -0.000000
RightUpLeg 2.129666 -7.198880 -4.053746
RightLeg -3.576266 -0.000000 0.000000
RightFoot -15.783859 -15.224205 9.895414
RightToeBase 5.255521 -0.000000 -0.000000
1323
root -1.415887 31.824378 -6.871064 5.437170 11.560884 3.884839
Spine -7.260293 -0.342174 -3.231707
Head 8.675302 -19.982694 0.310493
LeftShoulder -11.277117 16.757165 4.194353
LeftArm 26.743190 41.539506 -66.763792
LeftForeArm -1.111196 0.000000 14.966218
LeftHand -10.615272 -0.000000 -6.176115
LeftHandThumb1 -26.253704 0.000000 33.147579
RightShoulder 5.842935 19.796890 -14.414241
RightArm 17.745207 17.694376 89.874968
RightForeArm 28.062710 -0.000000 50.766760
RightHand -16.718054 -0.000000 0.036051
RightHandThumb1 -24.326973 -0.000000 -32.862282
LeftUpLeg -2.207447 -3.867791 -1.309449
LeftLeg 1.440548 -0.000000 -0.000000
LeftFoot -16.834682 15.421686 -24.202377
LeftToeBase 8.654770 -0.000000 -0.000000
RightUpLeg 2.126607 -7.211437 -4.054985
RightLeg -3.581907 -0.000000 0.000000
RightFoot -15.782484 -15.249144 9.891164
RightToeBase 5.222527 -0.000000 -0.000000
1324
root -1.412656 31.825873 -6.872041 5.469131 11.596858 3.906001
Spine -7.241849 -0.287534 -3.247112
Head 8.517901 -20.065916 0.442609
LeftShoulder -11.262223 16.782977 4.179351
LeftArm 26.863662 41.572132 -66.660940
LeftForeArm -1.172513 -0.000000 15.017096
LeftHand -10.601730 -0.000000 -6.123931
LeftHandThumb1 -26.253704 0.000000 33.147579
RightShoulder 5.650711 19.805206 -14.578123
RightArm 18.103823 18.530933 90.401910
RightForeArm 27.531479 -0.000000 53.141155
RightHand -16.929623 0.000000 0.568507
RightHandThumb1 -24.326973 -0.000000 -32.862282
LeftUpLeg -2.232081 -3.905227 -1.333951
LeftLeg 1.416072 -0.000000 -0.000000
LeftFoot -16.796115 15.461967 -24.173055
LeftToeBase 8.637159 -0.000000 -0.000000
RightUpLeg 2.068525 -7.356783 -4.075682
RightLeg -3.505711 -0.000000 0.000000
RightFoot -15.804830 -15.144242 9.876443
RightToeBase 5.259622 -0.000000 -0.000000
1325
root -1.411751 31.825976 -6.874391 5.490230 11.649182 3.913779
Spine -7.207698 -0.339730 -3.233766
Head 8.366215 -20.060869 0.556717
LeftShoulder -11.300934 16.756625 4.155988
LeftArm 26.837832 41.535354 -66.687805
LeftForeArm -1.156299 -0.000000 15.090456
LeftHand -10.578688 -0.000000 -6.109274
LeftHandThumb1 -26.253704 0.000000 33.147579
RightShoulder 5.641750 19.933002 -14.631753
RightArm 18.230117 19.100712 90.608160
RightForeArm 27.328800 -0.000000 55.712539
RightHand -16.944898 -0.000000 0.639810
RightHandThumb1 -24.326973 -0.000000 -32.862282
LeftUpLeg -2.263360 -3.925408 -1.338881
LeftLeg 1.421183 -0.000000 -0.000000
LeftFoot -16.762787 15.447319 -24.149111
LeftToeBase 8.607865 -0.000000 -0.000000
RightUpLeg 2.042950 -7.394979 -4.078541
RightLeg -3.481662 -0.000000 0.000000
RightFoot -15.822261 -15.161636 9.873592
RightToeBase 5.232277 -0.000000 -0.000000
1326
root -1.415669 31.825061 -6.878818 5.520361 11.700983 3.913922
Spine -7.174211 -0.434316 -3.220004
Head 8.199712 -20.032597 0.691460
LeftShoulder -11.375100 16.734257 4.132228
LeftArm 26.824718 41.515057 -66.690565
LeftForeArm -1.168154 -0.000000 15.184023
LeftHand -10.570059 -0.000000 -6.068876
LeftHandThumb1 -26.253704 0.000000 33.147579
RightShoulder 5.691616 20.122941 -14.661512
RightArm 18.292395 19.576797 90.722855
RightForeArm 27.335564 -0.000000 58.295526
RightHand -16.963172 -0.000000 0.517245
RightHandThumb1 -24.326973 -0.000000 -32.862282
LeftUpLeg -2.316214 -3.923689 -1.322236
LeftLeg 1.446248 -0.000000 -0.000000
LeftFoot -16.771244 15.358323 -24.196903
LeftToeBase 8.689960 -0.000000 -0.000000
RightUpLeg 2.001992 -7.399105 -4.061261
RightLeg -3.459405 -0.000000 0.000000
RightFoot -15.855000 -15.212722 9.873862
RightToeBase 5.261504 -0.000000 -0.000000
1327
root -1.418583 31.825148 -6.880874 5.576600 11.731106 3.908879
Spine -7.194113 -0.443467 -3.218473
Head 8.075758 -20.060257 0.850611
LeftShoulder -11.395447 16.721889 4.130062
LeftArm 26.835713 41.526504 -66.684503
LeftForeArm -1.208289 -0.000000 15.237558
LeftHand -10.532336 -0.000000 -6.082348
LeftHandThumb1 -26.253704 0.000000 33.147579
RightShoulder 5.696437 20.279128 -14.691677
RightArm 18.378393 20.100489 90.845834
RightForeArm 27.280773 0.000000 60.871540
RightHand -17.270933 -0.000000 0.674817
RightHandThumb1 -24.326973 -0.000000 -32.862282
LeftUpLeg -2.382673 -3.908659 -1.306865
LeftLeg 1.442430 -0.000000 -0.000000
LeftFoot -16.736912 15.328776 -24.166159
LeftToeBase 8.641719 -0.000000 -0.000000
RightUpLeg 1.985800 -7.222940 -4.045699
RightLeg -3.540185 -0.000000 0.000000
RightFoot -15.849615 -15.382233 9.955511
RightToeBase 5.247711 -0.000000 -0.000000
